<mxfile host="drawio-plugin" modified="2021-05-07T15:20:39.406Z" agent="5.0 (Windows NT 6.2; Win64; x64) AppleWebKit/537.36 (KHTML, like Gecko) Chrome/87.0.4280.141 Safari/537.36" etag="AesaBJivpb11sNev-cNB" version="13.7.9" type="embed"><diagram id="sQBw_XVwJE98K51S46_R" name="Page-1"><mxGraphModel dx="1050" dy="686" grid="1" gridSize="10" guides="1" tooltips="1" connect="1" arrows="1" fold="1" page="1" pageScale="1" pageWidth="850" pageHeight="1100" background="#ffffff" math="0" shadow="0"><root><mxCell id="0"/><mxCell id="1" parent="0"/><mxCell id="2" value="ShapeFactory" style="swimlane;fontStyle=3;align=center;verticalAlign=top;childLayout=stackLayout;horizontal=1;startSize=26;horizontalStack=0;resizeParent=1;resizeParentMax=0;resizeLast=0;collapsible=1;marginBottom=0;fillColor=#FFFFFF;fontColor=#000000;strokeColor=#0000CC;strokeWidth=2;" parent="1" vertex="1"><mxGeometry x="230" y="220" width="160" height="60" as="geometry"/></mxCell><mxCell id="4" value="" style="line;strokeWidth=2;align=left;verticalAlign=middle;spacingTop=-1;spacingLeft=3;spacingRight=3;rotatable=0;labelPosition=right;points=[];portConstraint=eastwest;fillColor=#FFFFFF;fontColor=#000000;strokeColor=#0000CC;" parent="2" vertex="1"><mxGeometry y="26" width="160" height="8" as="geometry"/></mxCell><mxCell id="5" value="+ factory_method(): " style="text;align=left;verticalAlign=top;spacingLeft=4;spacingRight=4;overflow=hidden;rotatable=0;points=[[0,0.5],[1,0.5]];portConstraint=eastwest;fillColor=#FFFFFF;fontColor=#000000;strokeColor=#0000CC;strokeWidth=2;" parent="2" vertex="1"><mxGeometry y="34" width="160" height="26" as="geometry"/></mxCell><mxCell id="6" value="Shape" style="swimlane;fontStyle=3;childLayout=stackLayout;horizontal=1;startSize=26;horizontalStack=0;resizeParent=1;resizeParentMax=0;resizeLast=0;collapsible=1;marginBottom=0;strokeColor=#0000CC;strokeWidth=2;fontColor=#000000;fillColor=#FFFFFF;" parent="1" vertex="1"><mxGeometry x="600" y="220" width="140" height="52" as="geometry"/></mxCell><mxCell id="7" value="+ get_square(): " style="text;align=left;verticalAlign=top;spacingLeft=4;spacingRight=4;overflow=hidden;rotatable=0;points=[[0,0.5],[1,0.5]];portConstraint=eastwest;fontColor=#000000;fillColor=#FFFFFF;strokeColor=#0000CC;strokeWidth=2;" parent="6" vertex="1"><mxGeometry y="26" width="140" height="26" as="geometry"/></mxCell><mxCell id="11" value="return" style="html=1;verticalAlign=bottom;endArrow=open;dashed=1;endSize=9;exitX=1;exitY=0.5;exitDx=0;exitDy=0;entryX=0;entryY=0.25;entryDx=0;entryDy=0;targetPerimeterSpacing=2;strokeWidth=2;strokeColor=#0000CC;fontColor=#000000;labelBackgroundColor=none;fontSize=14;" parent="1" source="5" target="6" edge="1"><mxGeometry relative="1" as="geometry"><mxPoint x="460" y="350" as="sourcePoint"/><mxPoint x="380" y="350" as="targetPoint"/></mxGeometry></mxCell><mxCell id="19" value="Rectangle" style="swimlane;fontStyle=1;align=center;verticalAlign=top;childLayout=stackLayout;horizontal=1;startSize=26;horizontalStack=0;resizeParent=1;resizeParentMax=0;resizeLast=0;collapsible=1;marginBottom=0;fillColor=#FFFFFF;fontColor=#000000;strokeColor=#0000CC;strokeWidth=2;" parent="1" vertex="1"><mxGeometry x="750" y="400" width="160" height="112" as="geometry"/></mxCell><mxCell id="23" value="- __height: float" style="text;align=left;verticalAlign=top;spacingLeft=4;spacingRight=4;overflow=hidden;rotatable=0;points=[[0,0.5],[1,0.5]];portConstraint=eastwest;fontColor=#000000;fillColor=#FFFFFF;strokeWidth=2;strokeColor=#0000CC;" parent="19" vertex="1"><mxGeometry y="26" width="160" height="26" as="geometry"/></mxCell><mxCell id="24" value="- __width: float" style="text;align=left;verticalAlign=top;spacingLeft=4;spacingRight=4;overflow=hidden;rotatable=0;points=[[0,0.5],[1,0.5]];portConstraint=eastwest;fontColor=#000000;fillColor=#FFFFFF;strokeColor=#0000CC;strokeWidth=2;" parent="19" vertex="1"><mxGeometry y="52" width="160" height="26" as="geometry"/></mxCell><mxCell id="20" value="" style="line;strokeWidth=2;align=left;verticalAlign=middle;spacingTop=-1;spacingLeft=3;spacingRight=3;rotatable=0;labelPosition=right;points=[];portConstraint=eastwest;fillColor=#FFFFFF;fontColor=#000000;strokeColor=#0000CC;" parent="19" vertex="1"><mxGeometry y="78" width="160" height="8" as="geometry"/></mxCell><mxCell id="21" value="+ get_square(): float" style="text;align=left;verticalAlign=top;spacingLeft=4;spacingRight=4;overflow=hidden;rotatable=0;points=[[0,0.5],[1,0.5]];portConstraint=eastwest;fillColor=#FFFFFF;fontColor=#000000;strokeColor=#0000CC;strokeWidth=2;" parent="19" vertex="1"><mxGeometry y="86" width="160" height="26" as="geometry"/></mxCell><mxCell id="16" value="Quadrate" style="swimlane;fontStyle=1;align=center;verticalAlign=top;childLayout=stackLayout;horizontal=1;startSize=26;horizontalStack=0;resizeParent=1;resizeParentMax=0;resizeLast=0;collapsible=1;marginBottom=0;fillColor=#FFFFFF;fontColor=#000000;strokeColor=#0000CC;strokeWidth=2;" parent="1" vertex="1"><mxGeometry x="470" y="400" width="160" height="86" as="geometry"/></mxCell><mxCell id="22" value="- __side: float" style="text;align=left;verticalAlign=top;spacingLeft=4;spacingRight=4;overflow=hidden;rotatable=0;points=[[0,0.5],[1,0.5]];portConstraint=eastwest;fontColor=#000000;fillColor=#FFFFFF;strokeColor=#0000CC;strokeWidth=2;" parent="16" vertex="1"><mxGeometry y="26" width="160" height="26" as="geometry"/></mxCell><mxCell id="17" value="" style="line;strokeWidth=2;align=left;verticalAlign=middle;spacingTop=-1;spacingLeft=3;spacingRight=3;rotatable=0;labelPosition=right;points=[];portConstraint=eastwest;fillColor=#FFFFFF;fontColor=#000000;strokeColor=#0000CC;" parent="16" vertex="1"><mxGeometry y="52" width="160" height="8" as="geometry"/></mxCell><mxCell id="18" value="+ get_square(): float" style="text;align=left;verticalAlign=top;spacingLeft=4;spacingRight=4;overflow=hidden;rotatable=0;points=[[0,0.5],[1,0.5]];portConstraint=eastwest;fillColor=#FFFFFF;fontColor=#000000;strokeColor=#0000CC;strokeWidth=2;" parent="16" vertex="1"><mxGeometry y="60" width="160" height="26" as="geometry"/></mxCell><mxCell id="25" value="Extends" style="endArrow=block;endSize=16;endFill=0;html=1;labelBackgroundColor=none;strokeColor=#0000CC;strokeWidth=2;fontColor=#000000;entryX=0.543;entryY=1.077;entryDx=0;entryDy=0;entryPerimeter=0;exitX=0.556;exitY=-0.023;exitDx=0;exitDy=0;exitPerimeter=0;fontSize=14;" parent="1" source="16" target="7" edge="1"><mxGeometry width="160" relative="1" as="geometry"><mxPoint x="340" y="350" as="sourcePoint"/><mxPoint x="500" y="350" as="targetPoint"/></mxGeometry></mxCell><mxCell id="26" value="Extends" style="endArrow=block;endSize=16;endFill=0;html=1;labelBackgroundColor=none;strokeColor=#0000CC;strokeWidth=2;fontColor=#000000;exitX=0.5;exitY=0;exitDx=0;exitDy=0;entryX=0.821;entryY=1.115;entryDx=0;entryDy=0;entryPerimeter=0;fontSize=14;" parent="1" source="19" target="7" edge="1"><mxGeometry width="160" relative="1" as="geometry"><mxPoint x="568.96" y="408.02199999999993" as="sourcePoint"/><mxPoint x="710" y="350" as="targetPoint"/></mxGeometry></mxCell><mxCell id="29" value="QuadrateFactory" style="swimlane;fontStyle=1;childLayout=stackLayout;horizontal=1;startSize=52;horizontalStack=0;resizeParent=1;resizeParentMax=0;resizeLast=0;collapsible=1;marginBottom=0;strokeColor=#0000CC;strokeWidth=2;fontColor=#000000;fillColor=#FFFFFF;" parent="1" vertex="1"><mxGeometry x="30" y="390" width="140" height="78" as="geometry"/></mxCell><mxCell id="30" value="+ factory_method(): " style="text;align=left;verticalAlign=top;spacingLeft=4;spacingRight=4;overflow=hidden;rotatable=0;points=[[0,0.5],[1,0.5]];portConstraint=eastwest;fontColor=#000000;fillColor=#FFFFFF;strokeColor=#0000CC;strokeWidth=2;" parent="29" vertex="1"><mxGeometry y="52" width="140" height="26" as="geometry"/></mxCell><mxCell id="33" value="Extends" style="endArrow=block;endSize=16;endFill=0;html=1;labelBackgroundColor=none;strokeColor=#0000CC;strokeWidth=2;fontColor=#000000;entryX=0.5;entryY=1;entryDx=0;entryDy=0;exitX=0.5;exitY=0;exitDx=0;exitDy=0;fontSize=14;" parent="1" source="29" target="2" edge="1"><mxGeometry width="160" relative="1" as="geometry"><mxPoint x="230.00000000000006" y="424.02199999999993" as="sourcePoint"/><mxPoint x="347.06" y="300.00199999999995" as="targetPoint"/></mxGeometry></mxCell><mxCell id="34" value="Extends" style="endArrow=block;endSize=16;endFill=0;html=1;labelBackgroundColor=none;strokeColor=#0000CC;strokeWidth=2;fontColor=#000000;exitX=0.579;exitY=0;exitDx=0;exitDy=0;exitPerimeter=0;fontSize=14;" parent="1" source="31" edge="1"><mxGeometry width="160" relative="1" as="geometry"><mxPoint x="578.96" y="418.02199999999993" as="sourcePoint"/><mxPoint x="340" y="280" as="targetPoint"/></mxGeometry></mxCell><mxCell id="35" value="return" style="html=1;verticalAlign=bottom;endArrow=open;dashed=1;endSize=9;exitX=1;exitY=0.5;exitDx=0;exitDy=0;entryX=-0.019;entryY=0.14;entryDx=0;entryDy=0;targetPerimeterSpacing=2;strokeWidth=2;strokeColor=#0000CC;fontColor=#000000;labelBackgroundColor=none;entryPerimeter=0;fontSize=14;" parent="1" source="30" target="16" edge="1"><mxGeometry relative="1" as="geometry"><mxPoint x="200" y="486" as="sourcePoint"/><mxPoint x="410" y="452" as="targetPoint"/></mxGeometry></mxCell><mxCell id="36" value="return" style="html=1;verticalAlign=bottom;endArrow=open;dashed=1;endSize=9;exitX=1;exitY=0.75;exitDx=0;exitDy=0;entryX=0;entryY=0.089;entryDx=0;entryDy=0;targetPerimeterSpacing=2;strokeWidth=2;strokeColor=#0000CC;fontColor=#000000;labelBackgroundColor=none;entryPerimeter=0;fontSize=14;" parent="1" source="31" target="19" edge="1"><mxGeometry relative="1" as="geometry"><mxPoint x="410" y="287" as="sourcePoint"/><mxPoint x="620" y="253" as="targetPoint"/></mxGeometry></mxCell><mxCell id="31" value="RectangleFactory" style="swimlane;fontStyle=1;childLayout=stackLayout;horizontal=1;startSize=52;horizontalStack=0;resizeParent=1;resizeParentMax=0;resizeLast=0;collapsible=1;marginBottom=0;strokeColor=#0000CC;strokeWidth=2;fontColor=#000000;fillColor=#FFFFFF;" parent="1" vertex="1"><mxGeometry x="310" y="570" width="140" height="78" as="geometry"/></mxCell><mxCell id="32" value="+ factory_method(): " style="text;align=left;verticalAlign=top;spacingLeft=4;spacingRight=4;overflow=hidden;rotatable=0;points=[[0,0.5],[1,0.5]];portConstraint=eastwest;fontColor=#000000;fillColor=#FFFFFF;strokeColor=#0000CC;strokeWidth=2;" parent="31" vertex="1"><mxGeometry y="52" width="140" height="26" as="geometry"/></mxCell></root></mxGraphModel></diagram></mxfile>